<svg width="14" height="12" viewBox="0 0 14 12" fill="none" xmlns="http://www.w3.org/2000/svg">
<path d="M10.9994 1.44998C10.6807 1.57874 10.5261 1.94288 10.6549 2.26158C10.6907 2.35021 10.7464 2.42496 10.8128 2.48601L10.5087 3.20238L9.09475 1.86626C9.16534 1.75493 9.19871 1.62405 9.19006 1.49252C9.18141 1.36098 9.13118 1.2356 9.04662 1.13448C8.96206 1.03335 8.84756 0.961714 8.71963 0.92991C8.59171 0.898107 8.45699 0.907781 8.33492 0.957536C8.01622 1.0863 7.86165 1.45044 7.99042 1.76913C8.06048 1.94255 8.20153 2.06532 8.36612 2.12209L8.11125 3.56496L6.10621 1.90865C6.24222 1.69053 6.27776 1.41348 6.17454 1.15798C6.0028 0.732918 5.51747 0.526905 5.09241 0.69864C4.66735 0.870375 4.46133 1.35571 4.63307 1.78077C4.73645 2.03665 4.95448 2.21126 5.20329 2.27345L4.91155 4.85772L3.7263 3.9967C3.76722 3.91772 3.79063 3.83084 3.79496 3.74199C3.79929 3.65314 3.78442 3.56441 3.75138 3.48182C3.62262 3.16312 3.25848 3.00855 2.93978 3.13731C2.62108 3.26608 2.46651 3.63021 2.59528 3.94891C2.67313 4.1416 2.8372 4.27254 3.02445 4.31882L2.93548 6.26217L2.21911 5.95809C2.22443 5.86808 2.21277 5.77596 2.1768 5.68694C2.04804 5.36824 1.6839 5.21368 1.36521 5.34244C1.04651 5.4712 0.89194 5.83534 1.0207 6.15404C1.14184 6.45385 1.47061 6.60522 1.77447 6.51518L4.41935 10.1512L4.49731 11.4027C4.49937 11.4355 4.50924 11.4674 4.52612 11.4957C4.543 11.524 4.5664 11.5478 4.59435 11.5652C4.65043 11.6008 4.72077 11.6074 4.78281 11.5823L12.8755 8.31262C12.906 8.3003 12.9332 8.28088 12.9547 8.25597C12.9762 8.23107 12.9915 8.20139 12.9992 8.1694C13.0072 8.13747 13.0075 8.10408 13 8.07202C12.9925 8.03996 12.9775 8.01015 12.9561 7.98509L12.1429 7.0307L11.5196 2.57788C11.6568 2.50677 11.7626 2.38719 11.8164 2.24239C11.8703 2.09758 11.8683 1.93793 11.811 1.79448C11.6822 1.47578 11.3181 1.32122 10.9994 1.44998ZM8.49062 1.3429C8.51317 1.32307 8.53978 1.3084 8.56859 1.2999C8.5974 1.29141 8.62771 1.2893 8.65742 1.29372C8.68712 1.29814 8.71551 1.30898 8.7406 1.3255C8.76568 1.34201 8.78687 1.3638 8.80267 1.38933C8.81848 1.41487 8.82852 1.44355 8.83211 1.47337C8.83569 1.50319 8.83273 1.53343 8.82344 1.56199C8.81414 1.59055 8.79872 1.61674 8.77827 1.63873C8.75781 1.66072 8.73281 1.67798 8.70499 1.68932C8.6976 1.69321 8.69004 1.69447 8.68311 1.69951C8.67069 1.7089 8.65843 1.71849 8.64632 1.72827C8.62714 1.73244 8.60767 1.73507 8.58807 1.73611C8.58375 1.73651 8.58083 1.74038 8.57667 1.74117C8.52785 1.74345 8.47981 1.72836 8.44108 1.69857C8.40234 1.66877 8.37542 1.62621 8.3651 1.57845C8.35478 1.53069 8.36173 1.48081 8.38471 1.43768C8.40769 1.39456 8.44522 1.36098 8.49062 1.3429ZM8.78429 2.14411L10.3359 3.61019L9.7724 4.93704L8.47931 3.86901L8.78429 2.14411ZM5.2481 1.08401C5.35038 1.04274 5.46486 1.0438 5.56636 1.08694C5.66786 1.13009 5.74806 1.21178 5.78932 1.31406C5.83059 1.41634 5.82953 1.53082 5.78639 1.63232C5.74324 1.73382 5.66155 1.81402 5.55927 1.85528C5.45699 1.89655 5.34251 1.89549 5.24101 1.85235C5.13952 1.8092 5.05931 1.72751 5.01805 1.62523C4.97679 1.52295 4.97784 1.40847 5.02099 1.30697C5.06413 1.20547 5.14583 1.12527 5.2481 1.08401ZM3.09548 3.52268C3.11882 3.50567 3.14549 3.49377 3.17374 3.48777C3.20199 3.48176 3.23119 3.48179 3.25944 3.48784C3.28768 3.49389 3.31433 3.50583 3.33764 3.52288C3.36095 3.53993 3.3804 3.56171 3.39473 3.58679C3.40905 3.61188 3.41792 3.6397 3.42075 3.66844C3.42359 3.69719 3.42033 3.7262 3.41118 3.7536C3.40204 3.781 3.38722 3.80616 3.36769 3.82744C3.34816 3.84872 3.32436 3.86564 3.29784 3.87709C3.29545 3.87895 3.29175 3.87866 3.28936 3.88052L3.27305 3.89339C3.26503 3.89797 3.25965 3.90462 3.25118 3.90805C3.23653 3.91396 3.22125 3.91386 3.20613 3.91639L3.20457 3.91253C3.19624 3.9141 3.18955 3.9186 3.18191 3.92079C3.13314 3.92307 3.08513 3.908 3.04641 3.87825C3.00769 3.8485 2.98076 3.80599 2.9704 3.75828C2.96004 3.71056 2.96692 3.66071 2.98982 3.61758C3.01271 3.57445 3.05015 3.54083 3.09548 3.52268ZM3.44079 4.30302L4.8584 5.33195L4.67014 6.99849L3.34345 6.43534L3.44079 4.30302ZM1.78929 6.00265C1.77215 6.03511 1.74704 6.06269 1.71632 6.08278C1.71217 6.08581 1.71033 6.09013 1.70671 6.09339C1.69631 6.09983 1.68816 6.1085 1.6766 6.11317C1.62635 6.12987 1.57163 6.1268 1.52357 6.10458C1.47551 6.08236 1.43771 6.04266 1.41788 5.99357C1.39804 5.94448 1.39765 5.88967 1.41679 5.8403C1.43593 5.79093 1.47316 5.7507 1.5209 5.72781C1.55907 5.7127 1.60085 5.7092 1.64099 5.71777C1.68114 5.72633 1.71786 5.74657 1.74654 5.77594C1.77521 5.8053 1.79457 5.84249 1.80218 5.88283C1.80979 5.92317 1.8053 5.96485 1.78929 6.00265ZM4.89417 11.089L4.83982 10.2144L11.8843 7.36827L12.4528 8.03515L4.89417 11.089ZM11.7167 6.98773L4.69606 9.82424L2.20824 6.40493L4.76384 7.49004C4.79161 7.5013 4.8215 7.50636 4.85142 7.50486C4.86022 7.50445 4.86792 7.50133 4.87641 7.50015C4.89207 7.49785 4.90797 7.49726 4.923 7.49119C4.95772 7.47713 4.98801 7.45397 5.01067 7.42415C5.03333 7.39432 5.04753 7.35893 5.05176 7.32171L5.28511 5.25862L5.62215 2.27053C5.63317 2.26787 5.64264 2.26135 5.65298 2.25808C5.67364 2.25152 5.69477 2.24836 5.7152 2.24011C5.73562 2.23186 5.75302 2.21945 5.77205 2.20997C5.78215 2.20499 5.79349 2.2031 5.80327 2.19735L8.1211 4.11191L9.72241 5.43465C9.75131 5.45848 9.78611 5.47407 9.82313 5.47978C9.86015 5.4855 9.89803 5.48112 9.93277 5.46711C9.94741 5.46119 9.95888 5.45073 9.97173 5.4415C9.97882 5.43685 9.98714 5.43304 9.99376 5.42722C10.0163 5.40751 10.0343 5.38311 10.0465 5.35573L11.131 2.79989L11.7167 6.98773ZM11.3108 2.22071C11.2992 2.22539 11.2873 2.22481 11.2754 2.2274C11.2705 2.22757 11.2658 2.22589 11.2611 2.22644C11.225 2.23333 11.1878 2.23094 11.1529 2.21949C11.1147 2.20387 11.082 2.17717 11.059 2.14281C11.0361 2.10845 11.0239 2.06801 11.0242 2.02669C11.0244 1.98537 11.037 1.94507 11.0603 1.91097C11.0837 1.87687 11.1167 1.85053 11.1551 1.83535C11.2053 1.81865 11.2601 1.82173 11.3081 1.84394C11.3562 1.86616 11.394 1.90586 11.4138 1.95495C11.4336 2.00405 11.434 2.05885 11.4149 2.10822C11.3958 2.15759 11.3585 2.19782 11.3108 2.22071ZM7.11648 5.70841C6.58506 5.92312 6.3276 6.52966 6.54231 7.06108C6.75702 7.5925 7.36356 7.84996 7.89498 7.63525C8.4264 7.42054 8.68386 6.81401 8.46915 6.28258C8.25444 5.75116 7.64791 5.4937 7.11648 5.70841ZM7.73928 7.24988C7.42058 7.37864 7.05644 7.22408 6.92768 6.90538C6.79892 6.58668 6.95348 6.22254 7.27218 6.09378C7.59088 5.96502 7.95502 6.11958 8.08378 6.43828C8.21254 6.75698 8.05798 7.12112 7.73928 7.24988Z" fill="url(#paint0_linear_144_6798)"/>
<defs>
<linearGradient id="paint0_linear_144_6798" x1="1.56565" y1="7.50282" x2="12.3559" y2="3.14327" gradientUnits="userSpaceOnUse">
<stop stop-color="#000092"/>
<stop offset="1" stop-color="#FF00F3"/>
</linearGradient>
</defs>
</svg>
